<svg xmlns="http://www.w3.org/2000/svg" viewBox="0 0 217 100.5"><defs><style>.cls-1,.cls-2,.cls-3{fill:#fff;}.cls-1,.cls-2{stroke:#fff;stroke-linecap:round;stroke-linejoin:round;}.cls-1{fill-rule:evenodd;}</style></defs><title>logo-white</title><g id="Layer_2" data-name="Layer 2"><g id="Layer_1-2" data-name="Layer 1"><polygon class="cls-1" points="43.7 95.02 44.31 95.02 45.52 98.54 46.77 94.83 48.04 98.54 49.26 95.02 49.87 95.02 48.02 100 46.78 96.3 45.54 100 43.7 95.02"/><polygon class="cls-1" points="53.19 99.81 53.19 95.02 55.7 95.02 55.7 95.54 53.76 95.54 53.76 96.91 55.7 96.91 55.7 97.44 53.76 97.44 53.76 99.28 55.7 99.28 55.7 99.81 53.19 99.81"/><path class="cls-1" d="M60.3,99.27h.36a9.07,9.07,0,0,0,.92,0,1.54,1.54,0,0,0,.86-.31,2.24,2.24,0,0,0,0-3,1.54,1.54,0,0,0-.86-.32,8.49,8.49,0,0,0-.92,0H60.3Zm-.57.54V95h.91a9.77,9.77,0,0,1,1.12,0,2.09,2.09,0,0,1,1,.41,2.67,2.67,0,0,1,0,3.89,2,2,0,0,1-.93.39,6.26,6.26,0,0,1-1,.06Z"/><path class="cls-1" d="M67.92,99.27h.36a9.07,9.07,0,0,0,.92,0,1.54,1.54,0,0,0,.86-.31,2.24,2.24,0,0,0,0-3,1.57,1.57,0,0,0-.86-.32,8.49,8.49,0,0,0-.92,0h-.36Zm-.57.54V95h.91a9.89,9.89,0,0,1,1.12,0,2.09,2.09,0,0,1,1,.41,2.67,2.67,0,0,1,0,3.89,2,2,0,0,1-.93.39,6.26,6.26,0,0,1-1,.06Z"/><rect class="cls-2" x="74.97" y="95.02" width="0.57" height="4.79"/><polygon class="cls-1" points="79.48 99.81 79.48 94.83 82.96 98.66 82.96 95.02 83.5 95.02 83.5 100 80.02 96.21 80.02 99.81 79.48 99.81"/><path class="cls-1" d="M90.05,97.34h2v.16a2.47,2.47,0,0,1-.63,1.78,2.29,2.29,0,0,1-1.74.66,2.53,2.53,0,0,1-1.2-.28,2.26,2.26,0,0,1-.92-.92,2.72,2.72,0,0,1-.3-1.28A2.55,2.55,0,0,1,88,95.53a2.36,2.36,0,0,1,1.69-.62,2.26,2.26,0,0,1,2,1l-.47.39a1.66,1.66,0,0,0-1.53-.87,1.72,1.72,0,0,0-1.38.59,2.16,2.16,0,0,0-.48,1.44,2,2,0,0,0,.51,1.4,1.75,1.75,0,0,0,1.35.56A1.71,1.71,0,0,0,90.88,99a1.66,1.66,0,0,0,.53-1.14H90.05Z"/><path class="cls-1" d="M100.07,96.87l.21-.12a1,1,0,0,0,.34-.31.7.7,0,0,0,.11-.38.51.51,0,0,0-.16-.4.57.57,0,0,0-.4-.14.55.55,0,0,0-.4.15.54.54,0,0,0-.16.41.67.67,0,0,0,.17.44Zm1,2-1.15-1.4-.14.1q-.69.47-.69,1a.86.86,0,0,0,.87.89A1.69,1.69,0,0,0,101,98.86Zm.77,1-.46-.56a2,2,0,0,1-1.44.65,1.44,1.44,0,0,1-1-.36,1.32,1.32,0,0,1-.39-1,1.77,1.77,0,0,1,1.09-1.47l-.2-.22a1.33,1.33,0,0,1-.23-.38,1.16,1.16,0,0,1-.07-.42.9.9,0,0,1,.32-.74,1.11,1.11,0,0,1,.77-.27,1.16,1.16,0,0,1,.77.26,1,1,0,0,1,.31.75,1.46,1.46,0,0,1-.87,1.2l1,1.26a5.59,5.59,0,0,0,.56-.75l.35.39a4.08,4.08,0,0,1-.61.74l.77.92Z"/><path class="cls-1" d="M113,96.16a2.09,2.09,0,0,0-1.58-.73A1.83,1.83,0,0,0,110,96a2.13,2.13,0,0,0-.22,2.54,1.86,1.86,0,0,0,1.61.85,2,2,0,0,0,1.55-.75v.75a2.65,2.65,0,0,1-1.6.53A2.45,2.45,0,0,1,110,99.5a2.38,2.38,0,0,1-1.06-2.06,2.48,2.48,0,0,1,2.51-2.54,2.7,2.7,0,0,1,1.56.52Z"/><path class="cls-1" d="M119.05,99.4a1.87,1.87,0,0,0,1.38-.58,2,2,0,0,0,0-2.8,1.85,1.85,0,0,0-1.38-.58,1.81,1.81,0,0,0-1.37.58,1.91,1.91,0,0,0-.58,1.4,1.93,1.93,0,0,0,.58,1.4A1.84,1.84,0,0,0,119.05,99.4Zm2.54-2a2.38,2.38,0,0,1-.73,1.78,2.49,2.49,0,0,1-1.81.74,2.46,2.46,0,0,1-1.79-.74,2.49,2.49,0,0,1,0-3.56,2.57,2.57,0,0,1,3.59,0A2.37,2.37,0,0,1,121.59,97.42Z"/><polygon class="cls-1" points="124.41 99.81 124.41 94.83 127.89 98.66 127.89 95.02 128.43 95.02 128.43 100 124.95 96.21 124.95 99.81 124.41 99.81"/><polygon class="cls-1" points="133.72 100 131.71 95.02 132.33 95.02 133.72 98.68 135.12 95.02 135.73 95.02 133.72 100"/><polygon class="cls-1" points="139.02 99.81 139.02 95.02 141.53 95.02 141.53 95.54 139.59 95.54 139.59 96.91 141.53 96.91 141.53 97.44 139.59 97.44 139.59 99.28 141.53 99.28 141.53 99.81 139.02 99.81"/><polygon class="cls-1" points="145.56 99.81 145.56 94.83 149.04 98.66 149.04 95.02 149.57 95.02 149.57 100 146.09 96.21 146.09 99.81 145.56 99.81"/><polygon class="cls-1" points="154.34 99.81 154.34 95.56 152.99 95.56 152.99 95.02 156.25 95.02 156.25 95.56 154.91 95.56 154.91 99.81 154.34 99.81"/><rect class="cls-2" x="159.68" y="95.02" width="0.57" height="4.79"/><path class="cls-1" d="M166.51,99.4a1.85,1.85,0,0,0,1.38-.58,2,2,0,0,0,0-2.8,1.85,1.85,0,0,0-1.38-.58,1.81,1.81,0,0,0-1.37.58,2,2,0,0,0,0,2.8A1.84,1.84,0,0,0,166.51,99.4Zm2.54-2a2.38,2.38,0,0,1-.73,1.78,2.56,2.56,0,0,1-3.6,0,2.49,2.49,0,0,1,0-3.56,2.57,2.57,0,0,1,3.59,0A2.37,2.37,0,0,1,169.05,97.42Z"/><polygon class="cls-1" points="171.87 99.81 171.87 94.83 175.35 98.66 175.35 95.02 175.89 95.02 175.89 100 172.41 96.21 172.41 99.81 171.87 99.81"/><path class="cls-3" d="M88.79,14.5c13,2,15.84,4.72,24,5a37.27,37.27,0,0,0,7-.39,35.2,35.2,0,0,1-6-.26C108.16,18.1,101.94,14.78,88.79,14.5Z"/><path class="cls-3" d="M78.3,14.84c13,1.64,17.81,5.1,26.8,5.28a32.92,32.92,0,0,0,6.67-.39,23.18,23.18,0,0,1-7.18-.76C98.2,17.42,89.53,14.51,78.3,14.84Z"/><path class="cls-3" d="M87,30.65c16-4.93,20.77-3.54,28.13-7.17A26.87,26.87,0,0,0,120.62,20a25.2,25.2,0,0,1-5.06,2.37C110.17,24.24,101.69,23.76,87,30.65Z"/><path class="cls-3" d="M73.94,37.71c18-6.37,26.14-5.43,34.89-9.94a26.5,26.5,0,0,0,5.6-3.58,19.84,19.84,0,0,1-6.9,2.68C100.1,28.54,87.86,30.22,73.94,37.71Z"/><path class="cls-3" d="M99.76,47.45c11.1-13.3,15.95-14.42,19.67-21.16a23.51,23.51,0,0,0,2.33-5.72A20.12,20.12,0,0,1,119.15,25C115.93,29.27,108.33,33,99.76,47.45Z"/><path class="cls-3" d="M92.68,61.5c12.25-16.4,20-20.15,24.3-28.41a23.06,23.06,0,0,0,2.33-5.84,16.39,16.39,0,0,1-3.93,5.68C110.22,38.19,100.28,46.56,92.68,61.5Z"/><path class="cls-3" d="M121,52.6c1.08-15.16,4-18.31,3.25-25.67A28.77,28.77,0,0,0,123,20.65a24.21,24.21,0,0,1,.43,5.29C123.21,31.07,119.58,37.75,121,52.6Z"/><path class="cls-3" d="M123,64.66c.39-16.28,3.82-22.64,2.89-30.9a26,26,0,0,0-1.24-5.93,17.19,17.19,0,0,1,0,6.52C123.65,40.86,120.88,51.74,123,64.66Z"/><path class="cls-3" d="M136.34,45.72c-5.16-10.81-4.65-14.47-8.4-20.26a37.81,37.81,0,0,0-4-5.23,31.93,31.93,0,0,1,3,4.71C129.16,29.4,129.73,36.22,136.34,45.72Z"/><path class="cls-3" d="M141.25,51.79c-5.05-9.78-5.4-15.54-9.19-21.33a28.12,28.12,0,0,0-3.42-4.38,19.11,19.11,0,0,1,2.9,5.35C133.55,36.74,136,45.23,141.25,51.79Z"/><path class="cls-3" d="M142.34,35c-6.56-5.78-7.66-8.89-12.54-12.33a37,37,0,0,0-5.43-3.21,35.8,35.8,0,0,1,4.46,3.17C132.33,25.57,135.42,30.8,142.34,35Z"/><path class="cls-3" d="M146.52,37.06c-5.42-4.57-7.53-8.64-11.93-11.75a23.4,23.4,0,0,0-4-2.38,18,18,0,0,1,4.11,3.37C137.85,29.68,142,34.8,146.52,37.06Z"/><path class="cls-3" d="M142.18,25.05c-5.79-2.2-7.7-4.43-12.4-5.66a28.82,28.82,0,0,0-5.46-.9,29,29,0,0,1,4.78,1.24C132.76,21,136.77,24.29,142.18,25.05Z"/><path class="cls-3" d="M145,25.13C140.67,23.55,138,21,134.1,20a15,15,0,0,0-3.69-.61,13,13,0,0,1,4.14,1.45C137.8,22.47,141.93,25,145,25.13Z"/><path class="cls-3" d="M138.68,17c-4.45.11-6.65-1.26-10.45-.67a18.82,18.82,0,0,0-4.47,1.25,19.49,19.49,0,0,1,4.15-.66C131.06,16.76,135.07,18.25,138.68,17Z"/><path class="cls-3" d="M140.38,16.07c-3.17.12-5.86-1.27-8.89-.84a8.77,8.77,0,0,0-2.83.8,7.94,7.94,0,0,1,3.49-.17C135,16.23,138.52,17,140.38,16.07Z"/><path class="cls-3" d="M133.25,10.72c-3,1.67-5.2,1.09-7.69,3.12a12.82,12.82,0,0,0-2.72,3,12.93,12.93,0,0,1,2.79-2.3C127.86,13.22,131.37,13.23,133.25,10.72Z"/><path class="cls-3" d="M134,9.23c-2.08,1.21-4.61.74-6.58,2.28a5.9,5.9,0,0,0-1.68,1.87,5,5,0,0,1,2.48-1.47C130.39,11.26,133.17,10.83,134,9.23Z"/><path class="cls-3" d="M126.41,6.07C125,9,123,9.15,122.17,12.29a14.42,14.42,0,0,0-.43,4.23,12.28,12.28,0,0,1,.89-3.49C123.62,10.75,126.31,9.46,126.41,6.07Z"/><path class="cls-3" d="M126.19,4.16c-1,2.08-3.18,2.46-3.87,4.9a7.12,7.12,0,0,0-.28,2.68,4.29,4.29,0,0,1,1.13-2.53C124.51,7.69,126.41,6.23,126.19,4.16Z"/><path class="cls-3" d="M118.23,3.15c.63,3.93-1,4.92.27,8.78a23.2,23.2,0,0,0,2.17,4.69,18.86,18.86,0,0,1-1.33-4.05C118.78,9.65,120.23,7.17,118.23,3.15Z"/><path class="cls-3" d="M116.8.87c.52,2.9-1.19,4.19-.19,7.36a12.26,12.26,0,0,0,1.46,3.15,6.56,6.56,0,0,1-.64-3.32C117.62,5.78,118.32,3.33,116.8.87Z"/><path class="cls-3" d="M108.66,2.51c3.51,4.71,2.72,6.55,6.5,10.52a36,36,0,0,0,4.72,4.13,29.37,29.37,0,0,1-3.59-3.78C113.89,10.31,113.49,6.79,108.66,2.51Z"/><path class="cls-3" d="M105.41,0c2.84,3.67,2.16,6,5.49,9.51a21.77,21.77,0,0,0,3.51,3.07A12.15,12.15,0,0,1,111.55,9C110.07,6.1,108.9,2.71,105.41,0Z"/><path class="cls-3" d="M98.11,5.52c7.74,4.62,8.41,7.21,14.84,10.13A41.27,41.27,0,0,0,119.56,18a37.3,37.3,0,0,1-5.37-2.48C109.87,13.12,106.83,9.06,98.11,5.52Z"/><path class="cls-3" d="M91.89,3.39c6.84,3.89,8.19,7.24,14.51,10.09a31.31,31.31,0,0,0,5.57,2,19.47,19.47,0,0,1-5.34-2.93C102.8,9.66,98.57,5.7,91.89,3.39Z"/><path class="cls-1" d="M1.89,75v4H3a5,5,0,0,0,2-.28A1.68,1.68,0,0,0,5.78,77,1.82,1.82,0,0,0,5,75.29,4.34,4.34,0,0,0,3,75ZM.5,85.74v-12H3.32a4.66,4.66,0,0,1,2.75.6A3.19,3.19,0,0,1,7.19,77q0,3-3.24,3H3.7l4.58,5.72H6.47L2.1,80H1.89v5.72Z"/><rect class="cls-2" x="15.77" y="73.75" width="1.42" height="11.99"/><polygon class="cls-1" points="29.24 86.21 24.17 73.75 25.72 73.75 29.23 82.92 32.74 73.75 34.28 73.75 29.24 86.21"/><polygon class="cls-1" points="41.26 85.74 41.26 73.75 47.58 73.75 47.58 75.05 42.68 75.05 42.68 78.49 47.58 78.49 47.58 79.82 42.68 79.82 42.68 84.41 47.58 84.41 47.58 85.74 41.26 85.74"/><path class="cls-1" d="M58.35,75v4h1.09a5,5,0,0,0,2-.28A1.68,1.68,0,0,0,62.24,77a1.82,1.82,0,0,0-.79-1.74,4.36,4.36,0,0,0-2-.33ZM57,85.74v-12h2.81a4.67,4.67,0,0,1,2.76.6A3.19,3.19,0,0,1,63.65,77q0,3-3.24,3h-.25l4.58,5.72H62.93L58.55,80h-.2v5.72Z"/><path class="cls-1" d="M77.15,79.08a3.46,3.46,0,0,1,2.36,3.29,3.51,3.51,0,0,1-1.08,2.7,3.89,3.89,0,0,1-2.76,1,3.78,3.78,0,0,1-2.36-.71A3.51,3.51,0,0,1,72,83.26l1.29-.64c.36,1.47,1.15,2.21,2.38,2.21a2.48,2.48,0,0,0,1.7-.59,2.08,2.08,0,0,0,.7-1.63,2.58,2.58,0,0,0-1.86-2.4l-1.46-.63a3.33,3.33,0,0,1-2.36-3.17,2.65,2.65,0,0,1,1-2.18,3.6,3.6,0,0,1,2.34-.77,3.17,3.17,0,0,1,3.1,1.82L77.68,76a2.32,2.32,0,0,0-2-1.38,1.83,1.83,0,0,0-1.3.48,1.66,1.66,0,0,0-.52,1.27c0,.81.53,1.45,1.61,1.93Z"/><rect class="cls-2" x="88.28" y="73.75" width="1.42" height="11.99"/><path class="cls-1" d="M99.74,84.4h.91a22.46,22.46,0,0,0,2.32-.08,4.13,4.13,0,0,0,2.16-.77,5.56,5.56,0,0,0,0-7.6,4.08,4.08,0,0,0-2.15-.8c-.43-.05-1.21-.08-2.33-.08h-.91ZM98.3,85.74v-12h2.3a22.51,22.51,0,0,1,2.82.12,5.4,5.4,0,0,1,2.61,1,5.81,5.81,0,0,1,2.09,4.89A5.75,5.75,0,0,1,106,84.62a5.26,5.26,0,0,1-2.34,1,16.27,16.27,0,0,1-2.57.15Z"/><polygon class="cls-1" points="116.16 85.74 116.16 73.75 122.48 73.75 122.48 75.05 117.59 75.05 117.59 78.49 122.48 78.49 122.48 79.82 117.59 79.82 117.59 84.41 122.48 84.41 122.48 85.74 116.16 85.74"/><path class="cls-1" d="M133.86,79.07h.72a6,6,0,0,0,2.12-.26,1.63,1.63,0,0,0,1-1.68,1.78,1.78,0,0,0-.94-1.77,5.36,5.36,0,0,0-2.17-.31h-.72Zm0,1.29v5.38h-1.39v-12H135a5.53,5.53,0,0,1,3,.6,3.08,3.08,0,0,1,1.22,2.7A3.12,3.12,0,0,1,138,79.76a5.55,5.55,0,0,1-3,.6Z"/><path class="cls-1" d="M149.53,76.43l-1.91,4.41h3.82Zm0-3.15L155,85.74h-1.55l-1.55-3.68h-4.69l-1.55,3.68h-1.55Z"/><polygon class="cls-1" points="163.07 85.74 163.07 73.75 164.5 73.75 164.5 84.38 169.02 84.38 169.02 85.74 163.07 85.74"/><path class="cls-1" d="M181.36,76.43l-1.9,4.41h3.81Zm0-3.15,5.46,12.46h-1.55l-1.56-3.68H179l-1.55,3.68h-1.54Z"/><path class="cls-1" d="M202.42,76.62a5.22,5.22,0,0,0-4-1.83A4.57,4.57,0,0,0,195,76.25a4.89,4.89,0,0,0-1.38,3.54,4.8,4.8,0,0,0,.82,2.83,4.68,4.68,0,0,0,4,2.13,5,5,0,0,0,3.92-1.89v1.89a6.73,6.73,0,0,1-4,1.31A6.09,6.09,0,0,1,194.84,85a5.91,5.91,0,0,1-2.69-5.15,6.23,6.23,0,0,1,6.34-6.34,6.75,6.75,0,0,1,3.93,1.3Z"/><polygon class="cls-1" points="210.18 85.74 210.18 73.75 216.5 73.75 216.5 75.05 211.61 75.05 211.61 78.49 216.5 78.49 216.5 79.82 211.61 79.82 211.61 84.41 216.5 84.41 216.5 85.74 210.18 85.74"/></g></g></svg>