<?xml version="1.0" encoding="UTF-8"?>
<svg xmlns="http://www.w3.org/2000/svg" xmlns:xlink="http://www.w3.org/1999/xlink" width="50px" height="44px" viewBox="0 0 49 44" version="1.1">
<g id="surface1">
<path style=" stroke:none;fill-rule:nonzero;fill:rgb(90.980392%,80.392157%,37.647059%);fill-opacity:1;" d="M 10.027344 9.902344 C 18.832031 11.285156 20.722656 13.105469 26.210938 13.28125 C 27.800781 13.347656 29.394531 13.261719 30.96875 13.019531 C 29.613281 13.082031 28.253906 13.023438 26.90625 12.847656 C 23.101562 12.34375 18.902344 10.085938 10.027344 9.902344 Z M 10.027344 9.902344 "/>
<path style=" stroke:none;fill-rule:nonzero;fill:rgb(37.254902%,26.27451%,22.745098%);fill-opacity:1;" d="M 2.941406 10.128906 C 11.75 11.246094 14.96875 13.589844 21.039062 13.714844 C 22.546875 13.78125 24.054688 13.6875 25.542969 13.445312 C 25.542969 13.445312 23.65625 13.652344 20.695312 12.929688 C 16.378906 11.886719 10.523438 9.90625 2.941406 10.128906 Z M 2.941406 10.128906 "/>
<path style=" stroke:none;fill-rule:nonzero;fill:rgb(90.980392%,80.392157%,37.647059%);fill-opacity:1;" d="M 8.800781 20.859375 C 19.636719 17.511719 22.828125 18.453125 27.792969 15.992188 C 29.125 15.359375 30.375 14.566406 31.511719 13.628906 C 30.4375 14.289062 29.292969 14.824219 28.101562 15.234375 C 24.46875 16.511719 18.738281 16.179688 8.800781 20.859375 Z M 8.800781 20.859375 "/>
<path style=" stroke:none;fill-rule:nonzero;fill:rgb(37.254902%,26.27451%,22.745098%);fill-opacity:1;" d="M 0 25.65625 C 12.136719 21.335938 17.648438 21.964844 23.554688 18.898438 C 26.21875 17.519531 27.335938 16.464844 27.335938 16.464844 C 27.335938 16.464844 25.847656 17.574219 22.679688 18.308594 C 17.660156 19.429688 9.386719 20.570312 0 25.65625 Z M 0 25.65625 "/>
<path style=" stroke:none;fill-rule:nonzero;fill:rgb(90.980392%,80.392157%,37.647059%);fill-opacity:1;" d="M 17.429688 32.265625 C 24.925781 23.234375 28.195312 22.464844 30.710938 17.898438 C 31.402344 16.683594 31.929688 15.378906 32.28125 14.023438 C 31.824219 15.109375 31.234375 16.128906 30.523438 17.066406 C 28.347656 19.925781 23.21875 22.46875 17.429688 32.265625 Z M 17.429688 32.265625 "/>
<path style=" stroke:none;fill-rule:nonzero;fill:rgb(37.254902%,26.27451%,22.745098%);fill-opacity:1;" d="M 12.648438 41.796875 C 20.921875 30.667969 26.128906 28.113281 29.058594 22.519531 C 30.355469 20.03125 30.632812 18.554688 30.632812 18.554688 C 30.632812 18.554688 30.09375 20.246094 27.976562 22.414062 C 24.496094 25.976562 17.765625 31.65625 12.648438 41.796875 Z M 12.648438 41.796875 "/>
<path style=" stroke:none;fill-rule:nonzero;fill:rgb(90.980392%,80.392157%,37.647059%);fill-opacity:1;" d="M 31.75 35.757812 C 32.484375 25.464844 34.433594 23.328125 33.949219 18.332031 C 33.820312 16.886719 33.535156 15.457031 33.09375 14.074219 C 33.316406 15.253906 33.414062 16.457031 33.378906 17.660156 C 33.265625 21.148438 30.8125 25.683594 31.75 35.757812 Z M 31.75 35.757812 "/>
<path style=" stroke:none;fill-rule:nonzero;fill:rgb(37.254902%,26.27451%,22.745098%);fill-opacity:1;" d="M 33.105469 43.945312 C 33.375 32.894531 35.683594 28.578125 35.054688 22.988281 C 34.933594 21.617188 34.65625 20.261719 34.222656 18.957031 C 34.222656 18.957031 34.675781 20.648438 34.25 23.386719 C 33.5625 27.773438 31.6875 35.175781 33.105469 43.945312 Z M 33.105469 43.945312 "/>
<path style=" stroke:none;fill-rule:nonzero;fill:rgb(90.980392%,80.392157%,37.647059%);fill-opacity:1;" d="M 42.128906 31.09375 C 38.644531 23.75 38.992188 21.269531 36.457031 17.339844 C 35.652344 16.074219 34.738281 14.886719 33.722656 13.789062 C 34.484375 14.792969 35.15625 15.863281 35.734375 16.984375 C 37.28125 20 37.667969 24.644531 42.128906 31.09375 Z M 42.128906 31.09375 "/>
<path style=" stroke:none;fill-rule:nonzero;fill:rgb(37.254902%,26.27451%,22.745098%);fill-opacity:1;" d="M 45.445312 35.210938 C 42.03125 28.570312 41.800781 24.664062 39.234375 20.734375 C 38.570312 19.667969 37.796875 18.667969 36.929688 17.757812 C 37.769531 18.855469 38.425781 20.082031 38.882812 21.386719 C 40.246094 25 41.898438 30.757812 45.445312 35.210938 Z M 45.445312 35.210938 "/>
<path style=" stroke:none;fill-rule:nonzero;fill:rgb(90.980392%,80.392157%,37.647059%);fill-opacity:1;" d="M 46.179688 23.808594 C 41.753906 19.878906 41.007812 17.773438 37.714844 15.4375 C 36.554688 14.609375 35.328125 13.878906 34.046875 13.257812 C 35.109375 13.894531 36.117188 14.617188 37.0625 15.410156 C 39.425781 17.414062 41.503906 20.957031 46.179688 23.808594 Z M 46.179688 23.808594 "/>
<path style=" stroke:none;fill-rule:nonzero;fill:rgb(37.254902%,26.27451%,22.745098%);fill-opacity:1;" d="M 49 25.210938 C 45.347656 22.113281 43.921875 19.34375 40.957031 17.238281 C 40.097656 16.601562 39.179688 16.054688 38.210938 15.605469 C 39.242188 16.222656 40.179688 16.996094 40.984375 17.894531 C 43.148438 20.203125 45.953125 23.675781 49 25.210938 Z M 49 25.210938 "/>
<path style=" stroke:none;fill-rule:nonzero;fill:rgb(90.980392%,80.392157%,37.647059%);fill-opacity:1;" d="M 46.070312 17.0625 C 42.160156 15.5625 40.875 14.050781 37.691406 13.21875 C 36.484375 12.894531 35.25 12.691406 34.003906 12.605469 C 35.101562 12.796875 36.179688 13.078125 37.230469 13.453125 C 39.707031 14.335938 42.417969 16.546875 46.070312 17.0625 Z M 46.070312 17.0625 "/>
<path style=" stroke:none;fill-rule:nonzero;fill:rgb(37.254902%,26.27451%,22.745098%);fill-opacity:1;" d="M 47.992188 17.113281 C 45.054688 16.042969 43.265625 14.308594 40.617188 13.601562 C 39.804688 13.363281 38.96875 13.222656 38.125 13.1875 C 39.105469 13.359375 40.046875 13.691406 40.914062 14.175781 C 43.117188 15.308594 45.917969 17.042969 47.992188 17.113281 Z M 47.992188 17.113281 "/>
<path style=" stroke:none;fill-rule:nonzero;fill:rgb(90.980392%,80.392157%,37.647059%);fill-opacity:1;" d="M 43.707031 11.585938 C 40.691406 11.652344 39.21875 10.726562 36.667969 11.125 C 35.632812 11.28125 34.617188 11.570312 33.652344 11.980469 C 34.566406 11.730469 35.503906 11.582031 36.449219 11.53125 C 38.566406 11.429688 41.269531 12.445312 43.707031 11.585938 Z M 43.707031 11.585938 "/>
<path style=" stroke:none;fill-rule:nonzero;fill:rgb(37.254902%,26.27451%,22.745098%);fill-opacity:1;" d="M 44.855469 10.964844 C 42.710938 11.042969 40.902344 10.097656 38.851562 10.390625 C 38.1875 10.464844 37.542969 10.644531 36.941406 10.929688 C 37.707031 10.722656 38.503906 10.683594 39.285156 10.816406 C 41.226562 11.070312 43.605469 11.625 44.855469 10.964844 Z M 44.855469 10.964844 "/>
<path style=" stroke:none;fill-rule:nonzero;fill:rgb(90.980392%,80.392157%,37.647059%);fill-opacity:1;" d="M 40.042969 7.328125 C 38.03125 8.464844 36.53125 8.074219 34.84375 9.449219 C 34.132812 10.03125 33.511719 10.726562 33.015625 11.503906 C 33.566406 10.898438 34.199219 10.371094 34.894531 9.941406 C 36.402344 9.03125 38.777344 9.035156 40.042969 7.328125 Z M 40.042969 7.328125 "/>
<path style=" stroke:none;fill-rule:nonzero;fill:rgb(37.254902%,26.27451%,22.745098%);fill-opacity:1;" d="M 40.558594 6.320312 C 39.148438 7.140625 37.445312 6.824219 36.113281 7.871094 C 35.648438 8.207031 35.261719 8.640625 34.976562 9.140625 C 35.421875 8.640625 36.003906 8.289062 36.652344 8.128906 C 38.109375 7.699219 39.992188 7.40625 40.558594 6.320312 Z M 40.558594 6.320312 "/>
<path style=" stroke:none;fill-rule:nonzero;fill:rgb(90.980392%,80.392157%,37.647059%);fill-opacity:1;" d="M 35.425781 4.179688 C 34.488281 6.140625 33.117188 6.269531 32.558594 8.394531 C 32.320312 9.332031 32.226562 10.300781 32.269531 11.269531 C 32.355469 10.453125 32.558594 9.65625 32.871094 8.902344 C 33.542969 7.355469 35.355469 6.476562 35.425781 4.179688 Z M 35.425781 4.179688 "/>
<path style=" stroke:none;fill-rule:nonzero;fill:rgb(37.254902%,26.27451%,22.745098%);fill-opacity:1;" d="M 35.273438 2.882812 C 34.628906 4.292969 33.128906 4.546875 32.660156 6.207031 C 32.480469 6.792969 32.417969 7.410156 32.476562 8.023438 C 32.535156 7.378906 32.800781 6.777344 33.238281 6.304688 C 34.144531 5.273438 35.425781 4.285156 35.273438 2.882812 Z M 35.273438 2.882812 "/>
<path style=" stroke:none;fill-rule:nonzero;fill:rgb(90.980392%,80.392157%,37.647059%);fill-opacity:1;" d="M 29.898438 2.191406 C 30.324219 4.859375 29.226562 5.535156 30.085938 8.15625 C 30.453125 9.269531 30.945312 10.335938 31.550781 11.339844 C 31.148438 10.460938 30.84375 9.535156 30.648438 8.585938 C 30.273438 6.609375 31.253906 4.925781 29.898438 2.191406 Z M 29.898438 2.191406 "/>
<path style=" stroke:none;fill-rule:nonzero;fill:rgb(37.254902%,26.27451%,22.745098%);fill-opacity:1;" d="M 28.9375 0.648438 C 29.269531 2.613281 28.136719 3.488281 28.804688 5.640625 C 29.03125 6.394531 29.363281 7.117188 29.789062 7.78125 C 29.453125 7.082031 29.308594 6.304688 29.363281 5.527344 C 29.496094 3.976562 29.964844 2.316406 28.9375 0.648438 Z M 28.9375 0.648438 "/>
<path style=" stroke:none;fill-rule:nonzero;fill:rgb(90.980392%,80.392157%,37.647059%);fill-opacity:1;" d="M 23.441406 1.746094 C 25.808594 4.953125 25.277344 6.207031 27.820312 8.898438 C 28.796875 9.925781 29.863281 10.863281 31.003906 11.699219 C 30.125 10.917969 29.3125 10.0625 28.582031 9.136719 C 26.96875 7.054688 26.703125 4.667969 23.441406 1.746094 Z M 23.441406 1.746094 "/>
<path style=" stroke:none;fill-rule:nonzero;fill:rgb(37.254902%,26.27451%,22.745098%);fill-opacity:1;" d="M 21.25 0.0546875 C 23.164062 2.546875 22.707031 4.113281 24.9375 6.511719 C 25.652344 7.289062 26.445312 7.984375 27.308594 8.59375 C 26.519531 7.90625 25.871094 7.074219 25.394531 6.140625 C 24.390625 4.199219 23.601562 1.894531 21.25 0.0546875 Z M 21.25 0.0546875 "/>
<path style=" stroke:none;fill-rule:nonzero;fill:rgb(90.980392%,80.392157%,37.647059%);fill-opacity:1;" d="M 16.320312 3.804688 C 21.546875 6.941406 21.996094 8.699219 26.339844 10.679688 C 27.777344 11.347656 29.269531 11.890625 30.796875 12.304688 C 29.546875 11.839844 28.335938 11.273438 27.171875 10.617188 C 24.257812 8.960938 22.207031 6.203125 16.320312 3.804688 Z M 16.320312 3.804688 "/>
<path style=" stroke:none;fill-rule:nonzero;fill:rgb(37.254902%,26.27451%,22.745098%);fill-opacity:1;" d="M 12.121094 2.359375 C 16.730469 4.992188 17.644531 7.269531 21.917969 9.203125 C 23.125 9.769531 24.382812 10.222656 25.675781 10.554688 C 24.375 10.089844 23.160156 9.421875 22.066406 8.574219 C 19.488281 6.609375 16.625 3.921875 12.121094 2.359375 Z M 12.121094 2.359375 "/>
</g>
</svg>
